<?xml version="1.0" encoding="utf-8"?>
<!-- Generator: Adobe Illustrator 16.0.0, SVG Export Plug-In . SVG Version: 6.00 Build 0)  -->
<!DOCTYPE svg PUBLIC "-//W3C//DTD SVG 1.1//EN" "http://www.w3.org/Graphics/SVG/1.1/DTD/svg11.dtd">
<svg version="1.1" id="Capa_1" xmlns="http://www.w3.org/2000/svg" xmlns:xlink="http://www.w3.org/1999/xlink" x="0px" y="0px"
	 width="200px" height="200px" viewBox="0 0 200 200" enable-background="new 0 0 200 200" xml:space="preserve">
<g id="heart">
	<path fill="#FFFFFF" d="M195.918,100.104c0,54.753-43.704,99.133-97.624,99.133c-53.921,0-97.627-44.38-97.627-99.133
		c0-54.756,43.706-99.143,97.627-99.143C152.214,0.96,195.918,45.347,195.918,100.104z"/>
	<path fill="#F15D44" d="M169.066,76.347c-9.753-43.766-63.783-30.1-69.23-11.13c-5.45-18.97-59.479-32.636-69.231,11.13
		c-12.131,54.439,69.231,97.228,69.231,97.228S181.195,130.786,169.066,76.347z"/>
	<path fill="#FFFFFF" d="M68.379,74.194c0,5.577-4.526,10.102-10.108,10.102c-5.576,0-10.107-4.525-10.107-10.102
		c0-5.582,4.531-10.103,10.107-10.103C63.853,64.092,68.379,68.612,68.379,74.194z"/>
	<g>
		<path fill="#B3B3B3" d="M98.296,3.977c52.165,0,94.605,43.12,94.605,96.122c0,53.001-42.44,96.121-94.605,96.121
			c-52.169,0-94.613-43.12-94.613-96.121C3.683,47.097,46.126,3.977,98.296,3.977 M98.296,0.96
			c-53.916,0-97.629,44.387-97.629,99.138c0,54.753,43.713,99.138,97.629,99.138c53.913,0,97.622-44.385,97.622-99.138
			C195.918,45.347,152.209,0.96,98.296,0.96L98.296,0.96z"/>
	</g>
</g>
</svg>
