<?xml version="1.0" encoding="utf-8"?>
<!-- Generator: Adobe Illustrator 16.0.0, SVG Export Plug-In . SVG Version: 6.00 Build 0)  -->
<!DOCTYPE svg PUBLIC "-//W3C//DTD SVG 1.1//EN" "http://www.w3.org/Graphics/SVG/1.1/DTD/svg11.dtd">
<svg version="1.1" id="Capa_1" xmlns="http://www.w3.org/2000/svg" xmlns:xlink="http://www.w3.org/1999/xlink" x="0px" y="0px"
	 width="200px" height="200px" viewBox="0 0 200 200" enable-background="new 0 0 200 200" xml:space="preserve">
<g id="cross">
	<path fill="#C1272D" d="M38.028,123.983l74.193,74.198c44.553-5.622,79.831-40.9,85.458-85.453l-74.198-74.198L38.028,123.983z"/>
	<path fill="#F15D44" d="M198.488,100.246c0,54.536-44.208,98.754-98.744,98.754C45.208,199,1,154.782,1,100.246
		C1,45.709,45.208,1.502,99.744,1.502C154.28,1.502,198.488,45.709,198.488,100.246z"/>
	<polygon fill="#FFFFFF" points="161.46,76.509 123.481,76.509 123.481,38.531 76.007,38.531 76.007,76.509 38.028,76.509 
		38.028,123.983 76.007,123.983 76.007,161.962 123.481,161.962 123.481,123.983 161.46,123.983 	"/>
</g>
</svg>
