<?xml version="1.0" encoding="utf-8"?>
<!-- Generator: Adobe Illustrator 16.0.0, SVG Export Plug-In . SVG Version: 6.00 Build 0)  -->
<!DOCTYPE svg PUBLIC "-//W3C//DTD SVG 1.1//EN" "http://www.w3.org/Graphics/SVG/1.1/DTD/svg11.dtd">
<svg version="1.1" id="Capa_1" xmlns="http://www.w3.org/2000/svg" xmlns:xlink="http://www.w3.org/1999/xlink" x="0px" y="0px"
	 width="200px" height="200px" viewBox="0 0 200 200" enable-background="new 0 0 200 200" xml:space="preserve">
<g id="pills_bottle">
	<path fill="#65C6BB" d="M200,99.452c0,54.927-44.528,99.455-99.451,99.455c-54.931,0-99.455-44.527-99.455-99.455
		c0-54.926,44.524-99.45,99.455-99.45C155.472,0.002,200,44.526,200,99.452z"/>
</g>
<g>
	<path fill="#FFFFFF" d="M79.12,99.397c0,11.511-9.233,20.339-21.423,20.339c-12.198,0-21.428-8.771-21.428-20.339
		c0-11.623,9.229-20.226,21.428-20.226C69.886,79.172,79.12,87.831,79.12,99.397z M45.499,99.397c0,7.01,5.642,12.481,12.312,12.481
		c6.665,0,12.076-5.472,12.076-12.481c0-7.014-5.411-12.368-12.076-12.368C51.084,87.029,45.499,92.384,45.499,99.397z"/>
	<path fill="#FFFFFF" d="M93.227,79.459l19.378,25.638V79.459h8.545v39.882h-8.207L93.628,93.76v25.581h-8.607V79.459H93.227z"/>
	<path fill="#FFFFFF" d="M156.68,99.228h7.807v15.324c-4.219,3.078-10.652,5.185-16.188,5.185c-12.074,0-21.248-8.771-21.248-20.339
		c0-11.51,9.342-20.226,21.768-20.226c5.92,0,11.963,2.276,16.008,5.803l-5.072,6.443c-2.961-2.738-7.061-4.445-10.936-4.445
		c-7.066,0-12.537,5.411-12.537,12.425c0,7.071,5.523,12.481,12.594,12.481c2.389,0,5.24-0.853,7.805-2.168V99.228z"/>
</g>
</svg>
