<?xml version="1.0" encoding="utf-8"?>
<!-- Generator: Adobe Illustrator 16.0.0, SVG Export Plug-In . SVG Version: 6.00 Build 0)  -->
<!DOCTYPE svg PUBLIC "-//W3C//DTD SVG 1.1//EN" "http://www.w3.org/Graphics/SVG/1.1/DTD/svg11.dtd">
<svg version="1.1" id="Capa_1" xmlns="http://www.w3.org/2000/svg" xmlns:xlink="http://www.w3.org/1999/xlink" x="0px" y="0px"
	 width="200px" height="200px" viewBox="0 0 200 200" enable-background="new 0 0 200 200" xml:space="preserve">
<g id="pills_bottle">
	<path fill="#65C6BB" d="M200,99.452c0,54.927-44.528,99.455-99.451,99.455c-54.931,0-99.455-44.527-99.455-99.455
		c0-54.926,44.524-99.45,99.455-99.45C155.472,0.002,200,44.526,200,99.452z"/>
</g>
<g>
	<path d="M199.816,105.244l-33.174-24.312L45.949,79.448l-3.088,28.984l65.965,90.103
		C157.969,194.481,196.974,154.718,199.816,105.244z"/>
</g>
<g>
	<path fill="#FFFFFF" d="M80.937,95.356c0,11.51-9.233,20.338-21.423,20.338c-12.198,0-21.428-8.771-21.428-20.338
		c0-11.624,9.229-20.226,21.428-20.226C71.703,75.13,80.937,83.789,80.937,95.356z M47.315,95.356
		c0,7.009,5.642,12.481,12.312,12.481c6.665,0,12.076-5.472,12.076-12.481c0-7.014-5.411-12.369-12.076-12.369
		C52.901,82.987,47.315,88.342,47.315,95.356z"/>
	<path fill="#FFFFFF" d="M95.044,75.417l19.378,25.637V75.417h8.545v39.881h-8.206L95.445,89.718v25.581h-8.607V75.417H95.044z"/>
	<path fill="#FFFFFF" d="M158.497,95.186h7.806v15.324c-4.219,3.078-10.652,5.185-16.187,5.185
		c-12.075,0-21.248-8.771-21.248-20.338c0-11.51,9.342-20.226,21.768-20.226c5.919,0,11.962,2.276,16.007,5.802l-5.071,6.443
		c-2.961-2.738-7.062-4.445-10.936-4.445c-7.066,0-12.538,5.411-12.538,12.425c0,7.071,5.524,12.481,12.594,12.481
		c2.39,0,5.241-0.853,7.806-2.168V95.186z"/>
</g>
</svg>
