<?xml version="1.0" encoding="utf-8"?>
<!-- Generator: Adobe Illustrator 16.0.0, SVG Export Plug-In . SVG Version: 6.00 Build 0)  -->
<!DOCTYPE svg PUBLIC "-//W3C//DTD SVG 1.1//EN" "http://www.w3.org/Graphics/SVG/1.1/DTD/svg11.dtd">
<svg version="1.1" id="Capa_1" xmlns="http://www.w3.org/2000/svg" xmlns:xlink="http://www.w3.org/1999/xlink" x="0px" y="0px"
	 width="230px" height="62px" viewBox="0 0 230 62" enable-background="new 0 0 230 62" xml:space="preserve">
<g>
	<linearGradient id="SVGID_1_" gradientUnits="userSpaceOnUse" x1="184.583" y1="44.4883" x2="184.583" y2="60.2">
		<stop  offset="0.3053" style="stop-color:#DCDCDC"/>
		<stop  offset="1" style="stop-color:#FFFFFF"/>
	</linearGradient>
	<path fill="url(#SVGID_1_)" d="M189.625,31.692v26.236c0,0.763-0.456,1.378-1.368,1.846c-0.91,0.466-2.097,0.699-3.556,0.699
		c-1.458,0-2.685-0.233-3.673-0.699c-0.99-0.468-1.487-1.083-1.487-1.846V31.251 M189.625,31.045v0.647"/>
	<g>
		<path fill="#FFFFFF" d="M0,56.574V5.768c0-1.042,0.494-1.823,1.485-2.345c0.989-0.52,2.188-0.781,3.596-0.781
			c1.406,0,2.604,0.261,3.595,0.781c0.989,0.522,1.485,1.303,1.485,2.345v21.339l16.883-22.98c0.73-0.989,1.668-1.485,2.813-1.485
			c1.303,0,2.605,0.56,3.909,1.681c1.302,1.121,1.954,2.306,1.954,3.556c0,0.782-0.209,1.434-0.625,1.954L21.104,27.341
			L38.143,53.29c0.364,0.522,0.548,1.122,0.548,1.799c0,1.251-0.639,2.411-1.915,3.479c-1.278,1.066-2.672,1.601-4.182,1.601
			c-1.564,0-2.737-0.649-3.518-1.952L14.381,35.939l-4.22,5.314v15.32c0,0.99-0.509,1.772-1.524,2.345
			c-1.016,0.574-2.203,0.86-3.556,0.86c-1.407,0-2.607-0.286-3.596-0.86C0.494,58.347,0,57.564,0,56.574z"/>
		<path fill="#FFFFFF" d="M40.955,44.459v-6.645c0-4.272,1.668-7.945,5.003-11.021c3.333-3.073,7.372-4.611,12.115-4.611
			c4.428,0,8.219,1.401,11.373,4.201c3.152,2.8,4.729,6.322,4.729,10.56c0,1.549-0.195,2.826-0.586,3.831
			c-0.391,1.007-0.99,1.716-1.797,2.13c-0.81,0.413-1.552,0.671-2.228,0.773c-0.678,0.104-1.563,0.155-2.658,0.155h-4.145h-2.163
			h-9.56v1.173c0,2.241,0.833,4.053,2.502,5.432c1.667,1.382,3.881,2.071,6.644,2.071c1.979,0,3.933-0.495,5.861-1.485
			c1.928-0.988,3.178-1.484,3.752-1.484c1.094,0,2.006,0.509,2.736,1.524c0.729,1.017,1.093,1.993,1.093,2.932
			c0,1.458-1.315,2.905-3.947,4.337c-2.632,1.436-5.901,2.151-9.809,2.151c-5.577,0-10.122-1.473-13.64-4.418
			C42.715,53.123,40.955,49.253,40.955,44.459z M64.718,35.922c0-1.702-0.665-3.089-1.994-4.161
			c-1.328-1.07-2.958-1.606-4.885-1.606c-1.825,0-3.413,0.524-4.768,1.569c-1.356,1.047-2.033,2.422-2.033,4.124v2.045h9.261h2.151
			c0.833,0,1.42-0.134,1.76-0.401C64.548,37.224,64.718,36.702,64.718,35.922"/>
		<path fill="#FFFFFF" d="M118.103,56.574V4.126c0-0.938,0.455-1.692,1.367-2.267c0.911-0.573,2.097-0.86,3.557-0.86
			c1.458,0,2.683,0.287,3.673,0.86c0.989,0.574,1.485,1.329,1.485,2.267v32.75l14.694-13.834c0.624-0.521,1.303-0.783,2.033-0.783
			c1.095,0,2.188,0.522,3.281,1.563c1.097,1.043,1.643,2.137,1.643,3.283c0,0.678-0.286,1.303-0.86,1.875l-9.224,8.364l11.49,16.414
			c0.364,0.521,0.549,1.069,0.549,1.642c0,1.146-0.641,2.267-1.918,3.361c-1.276,1.095-2.538,1.641-3.789,1.641
			c-1.042,0-1.876-0.442-2.5-1.329l-10.553-15.554l-4.847,4.456v8.598c0,0.782-0.521,1.513-1.563,2.188
			c-1.043,0.679-2.24,1.017-3.595,1.017c-1.408,0-2.58-0.326-3.518-0.977C118.57,58.15,118.103,57.408,118.103,56.574z"/>
		<path fill="#FFFFFF" d="M155.776,44.615V25.856c0-0.782,0.508-1.511,1.521-2.188c1.017-0.677,2.201-1.017,3.558-1.017
			c1.303,0,2.463,0.339,3.479,1.014c1.017,0.677,1.522,1.403,1.522,2.183v18.709c0,1.817,0.676,3.442,2.033,4.871
			c1.354,1.43,2.969,2.145,4.846,2.145s3.479-0.715,4.808-2.145c1.328-1.429,1.993-3.054,1.993-4.871V25.769
			c0-0.831,0.508-1.559,1.524-2.182c1.017-0.625,2.2-0.937,3.555-0.937c1.459,0,2.659,0.312,3.596,0.939
			c0.938,0.625,1.408,1.356,1.408,2.189v18.837c0,4.221-1.668,7.921-5.004,11.098c-3.335,3.18-7.294,4.771-11.88,4.771
			s-8.56-1.591-11.919-4.771C157.457,52.536,155.776,48.836,155.776,44.615z"/>
		<path fill="#FFFFFF" d="M195.717,44.459V38.05c0-4.272,1.666-7.985,5.002-11.139c3.335-3.153,7.32-4.729,11.958-4.729
			c4.534,0,8.493,1.563,11.881,4.689c3.387,3.127,5.082,6.853,5.082,11.178v6.409c0,4.22-1.695,7.946-5.082,11.177
			c-3.388,3.23-7.347,4.848-11.881,4.848c-4.533,0-8.493-1.617-11.88-4.848C197.409,52.405,195.717,48.679,195.717,44.459z
			 M205.799,44.436c0,1.861,0.678,3.517,2.032,4.964c1.354,1.449,2.972,2.173,4.846,2.173c1.825,0,3.428-0.724,4.809-2.173
			c1.38-1.447,2.07-3.103,2.07-4.964v-6.361c0-1.758-0.69-3.36-2.07-4.808c-1.381-1.449-2.983-2.174-4.809-2.174
			c-1.874,0-3.491,0.712-4.846,2.134s-2.032,3.037-2.032,4.848V44.436z"/>
		<linearGradient id="SVGID_2_" gradientUnits="userSpaceOnUse" x1="46.8623" y1="40.8633" x2="62.7295" y2="40.8633">
			<stop  offset="0.3053" style="stop-color:#DCDCDC"/>
			<stop  offset="1" style="stop-color:#FFFFFF"/>
		</linearGradient>
		<rect x="46.862" y="37.893" fill="url(#SVGID_2_)" width="15.867" height="5.94"/>
		<g>
			<path fill="#FFFFFF" d="M78.786,44.459v-6.645c0-4.272,1.667-7.945,5.003-11.021c3.334-3.073,7.373-4.611,12.114-4.611
				c4.428,0,8.219,1.401,11.373,4.201c3.152,2.8,4.729,6.322,4.729,10.56c0,1.549-0.195,2.826-0.587,3.831
				c-0.391,1.007-0.991,1.716-1.797,2.13c-0.808,0.413-1.551,0.671-2.228,0.773c-0.678,0.104-1.563,0.155-2.658,0.155H88.869v1.173
				c0,2.241,0.833,4.053,2.502,5.432c1.667,1.382,3.881,2.071,6.644,2.071c1.979,0,3.933-0.495,5.862-1.485
				c1.927-0.988,3.178-1.484,3.751-1.484c1.095,0,2.006,0.509,2.736,1.524c0.729,1.017,1.094,1.993,1.094,2.932
				c0,1.458-1.317,2.905-3.948,4.337c-2.631,1.436-5.901,2.151-9.809,2.151c-5.577,0-10.122-1.473-13.64-4.418
				C80.545,53.123,78.786,49.253,78.786,44.459z M88.869,37.893h11.412c0.833,0,1.419-0.134,1.759-0.401
				c0.338-0.268,0.507-0.789,0.507-1.569c0-1.702-0.664-3.089-1.993-4.161c-1.329-1.07-2.958-1.606-4.885-1.606
				c-1.825,0-3.413,0.524-4.768,1.569c-1.355,1.047-2.032,2.422-2.032,4.124V37.893z"/>
			<path fill="#FFFFFF" d="M78.786,44.459v-6.645c0-4.272,1.667-7.945,5.003-11.021c3.334-3.073,7.373-4.611,12.116-4.611
				c4.428,0,8.219,1.401,11.372,4.201c3.152,2.8,4.729,6.322,4.729,10.56c0,1.549-0.195,2.826-0.586,3.831
				c-0.391,1.007-0.99,1.716-1.798,2.13c-0.808,0.413-1.551,0.671-2.227,0.773c-0.678,0.104-1.563,0.155-2.658,0.155h-4.144h-2.163
				h-9.56v1.173c0,2.241,0.833,4.053,2.501,5.432c1.667,1.382,3.881,2.071,6.644,2.071c1.979,0,3.933-0.495,5.861-1.485
				c1.928-0.988,3.178-1.484,3.752-1.484c1.095,0,2.005,0.509,2.736,1.524c0.729,1.017,1.094,1.993,1.094,2.932
				c0,1.458-1.317,2.905-3.948,4.337c-2.631,1.436-5.901,2.151-9.809,2.151c-5.577,0-10.122-1.473-13.64-4.418
				C80.545,53.123,78.786,49.253,78.786,44.459z M102.548,35.922c0-1.702-0.665-3.089-1.994-4.161
				c-1.329-1.07-2.958-1.606-4.885-1.606c-1.825,0-3.413,0.524-4.768,1.569c-1.355,1.047-2.032,2.422-2.032,4.124v2.045h9.261h2.15
				c0.833,0,1.42-0.134,1.759-0.401C102.378,37.224,102.548,36.702,102.548,35.922"/>
			
				<linearGradient id="SVGID_3_" gradientUnits="userSpaceOnUse" x1="41.8828" y1="40.8633" x2="57.7505" y2="40.8633" gradientTransform="matrix(1 0 0 1 42.2129 0)">
				<stop  offset="0.3053" style="stop-color:#DCDCDC"/>
				<stop  offset="1" style="stop-color:#FFFFFF"/>
			</linearGradient>
			<rect x="84.096" y="37.893" fill="url(#SVGID_3_)" width="15.868" height="5.94"/>
		</g>
	</g>
	<g>
		<linearGradient id="SVGID_4_" gradientUnits="userSpaceOnUse" x1="14.3867" y1="43.748" x2="38.6958" y2="43.748">
			<stop  offset="0.1113" style="stop-color:#DCDCDC"/>
			<stop  offset="1" style="stop-color:#FFFFFF"/>
		</linearGradient>
		<path fill="url(#SVGID_4_)" d="M21.109,27.333l17.039,25.95c0.365,0.522,0.548,1.122,0.548,1.799c0,1.251-0.64,2.411-1.915,3.478
			c-1.278,1.07-2.671,1.603-4.182,1.603c-1.563,0-2.736-0.65-3.518-1.952L14.387,35.932"/>
		<path fill="#FFFFFF" d="M51.044,37.893v7.105c0,2.241,0.833,4.053,2.5,5.433c1.668,1.383,3.881,2.071,6.644,2.071
			c1.98,0,3.934-0.494,5.862-1.485c1.927-0.988,3.178-1.484,3.752-1.484c1.094,0,2.006,0.508,2.735,1.524s1.095,1.993,1.095,2.932
			c0,1.458-1.317,2.904-3.948,4.337c-2.631,1.435-5.901,2.148-9.809,2.148c-5.576,0-10.122-1.47-13.639-4.415
			c-3.518-2.943-5.276-6.812-5.276-11.606v-6.645"/>
		<path fill="#FFFFFF" d="M89.143,37.893v7.105c0,2.241,0.832,4.053,2.501,5.433c1.667,1.383,3.881,2.071,6.644,2.071
			c1.979,0,3.933-0.494,5.862-1.485c1.927-0.988,3.177-1.484,3.752-1.484c1.094,0,2.005,0.508,2.736,1.524
			c0.728,1.017,1.094,1.993,1.094,2.932c0,1.458-1.316,2.904-3.947,4.337c-2.633,1.435-5.902,2.148-9.81,2.148
			c-5.576,0-10.123-1.47-13.64-4.415c-3.517-2.943-5.276-6.812-5.276-11.606v-6.645"/>
		<linearGradient id="SVGID_5_" gradientUnits="userSpaceOnUse" x1="133.0361" y1="48.8691" x2="151.7949" y2="48.8691">
			<stop  offset="0.1113" style="stop-color:#DCDCDC"/>
			<stop  offset="1" style="stop-color:#FFFFFF"/>
		</linearGradient>
		<path fill="url(#SVGID_5_)" d="M139.758,37.339l11.489,16.415c0.364,0.52,0.548,1.068,0.548,1.641
			c0,1.146-0.641,2.267-1.917,3.361c-1.276,1.094-2.538,1.643-3.789,1.643c-1.042,0-1.877-0.444-2.501-1.331l-10.552-15.554"/>
		<path fill="#FFFFFF" d="M155.78,44.608v-18.76c0-0.781,0.509-1.51,1.522-2.189c1.017-0.676,2.201-1.015,3.558-1.015
			c1.303,0,2.463,0.337,3.479,1.014c1.017,0.676,1.522,1.403,1.522,2.182v18.709c0,1.818,0.676,3.443,2.033,4.872
			c1.354,1.429,2.969,2.144,4.846,2.144c1.876,0,3.479-0.715,4.808-2.144s1.992-3.054,1.992-4.872V25.762
			c0-0.831,0.509-1.558,1.525-2.183c1.016-0.623,2.2-0.935,3.555-0.935c1.459,0,2.659,0.312,3.596,0.938
			c0.938,0.625,1.408,1.356,1.408,2.188v18.838c0,4.22-1.669,7.921-5.004,11.098c-3.335,3.18-7.295,4.768-11.88,4.768
			c-4.586,0-8.56-1.588-11.919-4.768C157.461,52.529,155.78,48.828,155.78,44.608z"/>
		<path fill="#FFFFFF" d="M195.722,44.452v-6.409c0-4.272,1.666-7.984,5.002-11.139c3.335-3.152,7.32-4.729,11.958-4.729
			c4.534,0,8.493,1.563,11.883,4.69c3.385,3.126,5.08,6.853,5.08,11.178v6.409c0,4.221-1.695,7.946-5.08,11.176
			c-3.39,3.231-7.349,4.846-11.883,4.846c-4.531,0-8.493-1.614-11.88-4.846C197.414,52.398,195.722,48.673,195.722,44.452z
			 M205.803,44.429c0,1.861,0.679,3.515,2.033,4.964s2.972,2.172,4.846,2.172c1.825,0,3.428-0.723,4.808-2.172
			c1.381-1.449,2.071-3.103,2.071-4.964v-6.361c0-1.759-0.69-3.36-2.071-4.809c-1.38-1.449-2.982-2.174-4.808-2.174
			c-1.874,0-3.491,0.713-4.846,2.134c-1.354,1.422-2.033,3.038-2.033,4.849V44.429z"/>
	</g>
</g>
</svg>
